# Blender 4.0.0
# www.blender.org
mtllib Cube.mtl
o Cube
v 1.000000 1.000000 -1.000000
v 1.000000 -1.000000 -1.000000
v 1.000000 1.000000 1.000000
v 1.000000 -1.000000 1.000000
v -1.000000 1.000000 -1.000000
v -1.000000 -1.000000 -1.000000
v -1.000000 1.000000 1.000000
v -1.000000 -1.000000 1.000000
vn -0.0000 1.0000 -0.0000
vn -0.0000 -0.0000 1.0000
vn -1.0000 -0.0000 -0.0000
vn -0.0000 -1.0000 -0.0000
vn 1.0000 -0.0000 -0.0000
vn -0.0000 -0.0000 -1.0000
vt 0.000000 0.005000
vt 1.000000 0.005000
vt 1.000000 1.005000
vt 0.000000 1.005000
vt 0.000000 1.005000
vt 0.000000 0.005000
vt 1.000000 0.005000
vt 0.000000 0.005000
vt 0.000000 1.005000
vt 0.000000 1.005000
vt 0.000000 0.005000
vt 1.000000 0.005000
s 0
usemtl Scene_-_Root
f 1/1/1 5/2/1 7/3/1 3/4/1
f 4/5/2 3/6/2 7/7/2 8/3/2
f 8/5/3 7/6/3 5/7/3 6/3/3
f 6/8/4 2/2/4 4/3/4 8/9/4
f 2/10/5 1/11/5 3/12/5 4/3/5
f 6/5/6 5/6/6 1/7/6 2/3/6
